<?xml version="1.0" encoding="UTF-8"?>
<svg id="ice_cream" data-name="ice cream" xmlns="http://www.w3.org/2000/svg" xmlns:xlink="http://www.w3.org/1999/xlink" viewBox="0 0 200 200">
  <defs>
    <style>
      .cls-1 {
        stroke: #eaf1f5;
      }

      .cls-1, .cls-2, .cls-3, .cls-4 {
        fill: none;
        stroke-linecap: round;
        stroke-miterlimit: 10;
        stroke-width: 2px;
      }

      .cls-5 {
        fill: #f5d22b;
      }

      .cls-6 {
        fill: #4e5254;
      }

      .cls-7 {
        clip-path: url(#clippath-1);
      }

      .cls-8 {
        fill: #313435;
      }

      .cls-9 {
        fill: #f9f6e0;
      }

      .cls-10 {
        fill: #894a21;
      }

      .cls-2 {
        stroke: #f8f07f;
      }

      .cls-11 {
        fill: #e7aa29;
      }

      .cls-12 {
        clip-path: url(#clippath);
      }

      .cls-13 {
        fill: #f7d483;
      }

      .cls-14 {
        fill: #f493ba;
      }

      .cls-3 {
        stroke: #df61a4;
      }

      .cls-4 {
        stroke: #71c8b5;
      }
    </style>
    <clipPath id="clippath">
      <path class="cls-14" d="m79.22,81.29c.88-2.14,1.37-4.47,1.37-6.92,0-10.08-8.17-18.25-18.25-18.25s-18.25,8.17-18.25,18.25c0,2.77.63,5.38,1.73,7.73-2.05,1.13-3.24,2.47-3.24,3.9,0,1.35,1.05,2.62,2.89,3.7,3.62,2.15,10.28,3.59,17.9,3.59s14.29-1.44,17.9-3.59c1.83-1.08,2.89-2.35,2.89-3.7,0-1.8-1.86-3.44-4.94-4.71Z"/>
    </clipPath>
    <clipPath id="clippath-1">
      <path class="cls-9" d="m155.71,111.86c0,15.2-16.92,17.1-32.53,17.1s-31.69-1.48-31.69-16.68,16.08-38.36,31.69-38.36,32.53,22.73,32.53,37.93Z"/>
    </clipPath>
  </defs>
  <g>
    <path class="cls-13" d="m63.37,87.61l-15.66-.74,13.73,54.97c.79,2.04,3.01,2.15,3.86,0l13.73-54.97-15.66.74Z"/>
    <g>
      <path class="cls-14" d="m79.22,81.29c.88-2.14,1.37-4.47,1.37-6.92,0-10.08-8.17-18.25-18.25-18.25s-18.25,8.17-18.25,18.25c0,2.77.63,5.38,1.73,7.73-2.05,1.13-3.24,2.47-3.24,3.9,0,1.35,1.05,2.62,2.89,3.7,3.62,2.15,10.28,3.59,17.9,3.59s14.29-1.44,17.9-3.59c1.83-1.08,2.89-2.35,2.89-3.7,0-1.8-1.86-3.44-4.94-4.71Z"/>
      <g class="cls-12">
        <ellipse class="cls-10" cx="78.46" cy="64.51" rx="12.69" ry="18.24" transform="translate(-1.27 127.46) rotate(-77.72)"/>
        <ellipse class="cls-10" cx="52.11" cy="65.1" rx="12.69" ry="18.24" transform="translate(-22.58 102.18) rotate(-77.72)"/>
      </g>
    </g>
    <rect class="cls-14" x="65.19" y="89.5" width="5.78" height="9.94"/>
    <circle class="cls-14" cx="69.12" cy="99.44" r="3.93"/>
    <line class="cls-3" x1="56.35" y1="64.87" x2="59.15" y2="64.87"/>
    <line class="cls-3" x1="63.74" y1="56.8" x2="66.54" y2="56.8"/>
    <line class="cls-3" x1="70.85" y1="66.86" x2="72.83" y2="64.88"/>
    <line class="cls-2" x1="64.06" y1="61.84" x2="66.04" y2="63.82"/>
    <line class="cls-2" x1="50.53" y1="64.27" x2="52.51" y2="62.29"/>
    <line class="cls-2" x1="54.48" y1="69.79" x2="57.28" y2="69.79"/>
    <line class="cls-4" x1="64.09" y1="68.19" x2="64.09" y2="71"/>
    <line class="cls-4" x1="72.89" y1="59.32" x2="74.87" y2="61.3"/>
    <line class="cls-4" x1="56.22" y1="57" x2="56.22" y2="59.8"/>
  </g>
  <g>
    <path class="cls-8" d="m157.42,107.28c0,5.56-15.15,10.06-33.83,10.06s-33.83-4.5-33.83-10.06,15.14-10.07,33.83-10.07,33.83,4.51,33.83,10.07Z"/>
    <g>
      <path class="cls-9" d="m155.71,111.86c0,15.2-16.92,17.1-32.53,17.1s-31.69-1.48-31.69-16.68,16.08-38.36,31.69-38.36,32.53,22.73,32.53,37.93Z"/>
      <g class="cls-7">
        <circle class="cls-11" cx="104.15" cy="94.28" r="9.42"/>
        <circle class="cls-11" cx="129.71" cy="95.09" r="9.42"/>
        <circle class="cls-11" cx="142.45" cy="89.17" r="7.79"/>
        <circle class="cls-11" cx="116.11" cy="91.12" r="7.1"/>
        <rect class="cls-11" x="101.91" y="67.63" width="42.37" height="21.77"/>
      </g>
    </g>
    <path class="cls-6" d="m157.42,107.28c0,14.02-8.67,24.91-18.3,31.37,0,0-6.95,3.73-15.53,3.73s-15.53-3.73-15.53-3.73c-9.62-6.46-18.3-17.35-18.3-31.37,0,5.56,15.14,10.06,33.83,10.06s33.83-4.5,33.83-10.06Z"/>
    <path class="cls-1" d="m96.34,118.67c1.3,3.48,3.15,6.72,5.58,9.54"/>
    <line class="cls-1" x1="104.41" y1="130.92" x2="105.78" y2="132.15"/>
    <rect class="cls-5" x="98.12" y="83.71" width="6.97" height="6.97" rx="1.54" ry="1.54" transform="translate(49.31 -36.06) rotate(26.37)"/>
    <rect class="cls-5" x="105.09" y="98.73" width="6.97" height="6.97" rx="1.54" ry="1.54" transform="translate(24.22 -20.75) rotate(12.28)"/>
    <rect class="cls-5" x="127.08" y="88.31" width="6.97" height="6.97" rx="1.54" ry="1.54" transform="translate(-12.58 21.21) rotate(-8.86)"/>
    <rect class="cls-5" x="135.9" y="105.57" width="6.97" height="6.97" rx="1.54" ry="1.54" transform="translate(-15.14 22.77) rotate(-8.86)"/>
    <rect class="cls-5" x="145.15" y="90.27" width="6.97" height="6.97" rx="1.54" ry="1.54" transform="translate(155.52 -81.85) rotate(60)"/>
    <path class="cls-5" d="m131.18,72.44c.42-1.02.65-2.14.65-3.31,0-4.82-3.91-8.73-8.73-8.73s-8.73,3.91-8.73,8.73c0,1.32.3,2.57.83,3.7-.98.54-1.55,1.18-1.55,1.87,0,.65.5,1.25,1.38,1.77,1.73,1.03,4.92,1.71,8.56,1.71s6.83-.69,8.56-1.71c.88-.52,1.38-1.12,1.38-1.77,0-.86-.89-1.65-2.36-2.25Z"/>
  </g>
</svg>